HIERARCHY
ROOT mixamorig:Hips
{
	OFFSET -0.000008 104.274872 1.554316
	CHANNELS 6 Xposition Yposition Zposition Xrotation Yrotation Zrotation
	JOINT mixamorig:Spine
	{
		OFFSET -0.000005 10.181595 0.131519
		CHANNELS 6 Xposition Yposition Zposition Xrotation Yrotation Zrotation
		JOINT mixamorig:Spine1
		{
			OFFSET -0.000000 9.893959 -1.470707
			CHANNELS 6 Xposition Yposition Zposition Xrotation Yrotation Zrotation
			JOINT mixamorig:Spine2
			{
				OFFSET -0.000000 9.220757 -1.370641
				CHANNELS 6 Xposition Yposition Zposition Xrotation Yrotation Zrotation
				JOINT mixamorig:Neck
				{
					OFFSET 0.000001 16.740417 -2.049036
					CHANNELS 6 Xposition Yposition Zposition Xrotation Yrotation Zrotation
					JOINT mixamorig:Head
					{
						OFFSET 0.000000 9.617874 1.685006
						CHANNELS 6 Xposition Yposition Zposition Xrotation Yrotation Zrotation
						JOINT mixamorig:HeadTop_End
						{
							OFFSET 0.000002 22.037354 7.501101
							CHANNELS 6 Xposition Yposition Zposition Xrotation Yrotation Zrotation
							End Site
							{
								OFFSET 0.000168 2310.654297 -282.823242
							}
						}
					}
				}
				JOINT mixamorig:RightShoulder
				{
					OFFSET -4.569970 11.014908 -2.160885
					CHANNELS 6 Xposition Yposition Zposition Xrotation Yrotation Zrotation
					JOINT mixamorig:RightArm
					{
						OFFSET -10.592851 -0.524811 -2.232101
						CHANNELS 6 Xposition Yposition Zposition Xrotation Yrotation Zrotation
						JOINT mixamorig:RightForeArm
						{
							OFFSET -27.841511 0.000031 -0.000004
							CHANNELS 6 Xposition Yposition Zposition Xrotation Yrotation Zrotation
							JOINT mixamorig:RightHand
							{
								OFFSET -28.328831 -0.000015 0.000015
								CHANNELS 6 Xposition Yposition Zposition Xrotation Yrotation Zrotation
								JOINT mixamorig:RightHandThumb1
								{
									OFFSET -2.464806 -1.573990 2.681852
									CHANNELS 6 Xposition Yposition Zposition Xrotation Yrotation Zrotation
									JOINT mixamorig:RightHandThumb2
									{
										OFFSET -3.215179 -1.872803 1.924282
										CHANNELS 6 Xposition Yposition Zposition Xrotation Yrotation Zrotation
										JOINT mixamorig:RightHandThumb3
										{
											OFFSET -2.654831 -1.527969 1.512609
											CHANNELS 6 Xposition Yposition Zposition Xrotation Yrotation Zrotation
											JOINT mixamorig:RightHandThumb4
											{
												OFFSET -2.018814 -1.152008 1.108052
												CHANNELS 6 Xposition Yposition Zposition Xrotation Yrotation Zrotation
												End Site
												{
													OFFSET -188.809540 -114.533607 132.431396
												}
											}
										}
									}
								}
								JOINT mixamorig:RightHandIndex1
								{
									OFFSET -9.108284 -0.517868 2.259835
									CHANNELS 6 Xposition Yposition Zposition Xrotation Yrotation Zrotation
									JOINT mixamorig:RightHandIndex2
									{
										OFFSET -3.699989 0.000000 0.001215
										CHANNELS 6 Xposition Yposition Zposition Xrotation Yrotation Zrotation
										JOINT mixamorig:RightHandIndex3
										{
											OFFSET -2.850006 0.000031 -0.000522
											CHANNELS 6 Xposition Yposition Zposition Xrotation Yrotation Zrotation
											JOINT mixamorig:RightHandIndex4
											{
												OFFSET -2.772186 -0.000015 -0.000020
												CHANNELS 6 Xposition Yposition Zposition Xrotation Yrotation Zrotation
												End Site
												{
													OFFSET -277.218445 0.000000 -0.050231
												}
											}
										}
									}
								}
								JOINT mixamorig:RightHandMiddle1
								{
									OFFSET -9.532516 -0.000031 -0.000023
									CHANNELS 6 Xposition Yposition Zposition Xrotation Yrotation Zrotation
									JOINT mixamorig:RightHandMiddle2
									{
										OFFSET -3.700005 -0.000015 0.003713
										CHANNELS 6 Xposition Yposition Zposition Xrotation Yrotation Zrotation
										JOINT mixamorig:RightHandMiddle3
										{
											OFFSET -2.949974 0.000015 -0.002054
											CHANNELS 6 Xposition Yposition Zposition Xrotation Yrotation Zrotation
											JOINT mixamorig:RightHandMiddle4
											{
												OFFSET -2.946640 0.000000 -0.000156
												CHANNELS 6 Xposition Yposition Zposition Xrotation Yrotation Zrotation
												End Site
												{
													OFFSET -294.664337 0.000000 -0.113670
												}
											}
										}
									}
								}
								JOINT mixamorig:RightHandRing1
								{
									OFFSET -9.103600 -0.043076 -1.865134
									CHANNELS 6 Xposition Yposition Zposition Xrotation Yrotation Zrotation
									JOINT mixamorig:RightHandRing2
									{
										OFFSET -3.379288 0.000000 -0.001055
										CHANNELS 6 Xposition Yposition Zposition Xrotation Yrotation Zrotation
										JOINT mixamorig:RightHandRing3
										{
											OFFSET -2.889687 -0.000015 0.000379
											CHANNELS 6 Xposition Yposition Zposition Xrotation Yrotation Zrotation
											JOINT mixamorig:RightHandRing4
											{
												OFFSET -2.638809 -0.000015 0.000941
												CHANNELS 6 Xposition Yposition Zposition Xrotation Yrotation Zrotation
												End Site
												{
													OFFSET -263.880371 0.000000 0.516020
												}
											}
										}
									}
								}
								JOINT mixamorig:RightHandPinky1
								{
									OFFSET -8.076683 -0.486710 -3.806280
									CHANNELS 6 Xposition Yposition Zposition Xrotation Yrotation Zrotation
									JOINT mixamorig:RightHandPinky2
									{
										OFFSET -3.600014 -0.000015 -0.003747
										CHANNELS 6 Xposition Yposition Zposition Xrotation Yrotation Zrotation
										JOINT mixamorig:RightHandPinky3
										{
											OFFSET -2.099983 0.000000 -0.005739
											CHANNELS 6 Xposition Yposition Zposition Xrotation Yrotation Zrotation
											JOINT mixamorig:RightHandPinky4
											{
												OFFSET -2.115768 -0.000031 -0.003680
												CHANNELS 6 Xposition Yposition Zposition Xrotation Yrotation Zrotation
												End Site
												{
													OFFSET -211.577087 0.000000 -0.350686
												}
											}
										}
									}
								}
							}
						}
					}
				}
				JOINT mixamorig:LeftShoulder
				{
					OFFSET 4.570447 11.014725 -2.160855
					CHANNELS 6 Xposition Yposition Zposition Xrotation Yrotation Zrotation
					JOINT mixamorig:LeftArm
					{
						OFFSET 10.592371 -0.524597 -2.232119
						CHANNELS 6 Xposition Yposition Zposition Xrotation Yrotation Zrotation
						JOINT mixamorig:LeftForeArm
						{
							OFFSET 27.841532 -0.000031 0.000026
							CHANNELS 6 Xposition Yposition Zposition Xrotation Yrotation Zrotation
							JOINT mixamorig:LeftHand
							{
								OFFSET 28.328846 -0.000061 0.000022
								CHANNELS 6 Xposition Yposition Zposition Xrotation Yrotation Zrotation
								JOINT mixamorig:LeftHandThumb1
								{
									OFFSET 2.466141 -1.576172 2.681732
									CHANNELS 6 Xposition Yposition Zposition Xrotation Yrotation Zrotation
									JOINT mixamorig:LeftHandThumb2
									{
										OFFSET 3.217812 -1.872070 1.916482
										CHANNELS 6 Xposition Yposition Zposition Xrotation Yrotation Zrotation
										JOINT mixamorig:LeftHandThumb3
										{
											OFFSET 2.656029 -1.528778 1.514513
											CHANNELS 6 Xposition Yposition Zposition Xrotation Yrotation Zrotation
											JOINT mixamorig:LeftHandThumb4
											{
												OFFSET 2.020889 -1.154053 1.115139
												CHANNELS 6 Xposition Yposition Zposition Xrotation Yrotation Zrotation
												End Site
												{
													OFFSET 190.885437 -115.081749 130.048782
												}
											}
										}
									}
								}
								JOINT mixamorig:LeftHandIndex1
								{
									OFFSET 9.109314 -0.518021 2.259871
									CHANNELS 6 Xposition Yposition Zposition Xrotation Yrotation Zrotation
									JOINT mixamorig:LeftHandIndex2
									{
										OFFSET 3.699989 0.000000 -0.000322
										CHANNELS 6 Xposition Yposition Zposition Xrotation Yrotation Zrotation
										JOINT mixamorig:LeftHandIndex3
										{
											OFFSET 2.850006 0.000000 0.000352
											CHANNELS 6 Xposition Yposition Zposition Xrotation Yrotation Zrotation
											JOINT mixamorig:LeftHandIndex4
											{
												OFFSET 2.774864 -0.000031 -0.000027
												CHANNELS 6 Xposition Yposition Zposition Xrotation Yrotation Zrotation
												End Site
												{
													OFFSET 277.486267 0.000000 -0.009857
												}
											}
										}
									}
								}
								JOINT mixamorig:LeftHandMiddle1
								{
									OFFSET 9.533394 0.000061 0.000044
									CHANNELS 6 Xposition Yposition Zposition Xrotation Yrotation Zrotation
									JOINT mixamorig:LeftHandMiddle2
									{
										OFFSET 3.699989 -0.000015 -0.000231
										CHANNELS 6 Xposition Yposition Zposition Xrotation Yrotation Zrotation
										JOINT mixamorig:LeftHandMiddle3
										{
											OFFSET 2.949997 -0.000015 -0.000059
											CHANNELS 6 Xposition Yposition Zposition Xrotation Yrotation Zrotation
											JOINT mixamorig:LeftHandMiddle4
											{
												OFFSET 2.952896 0.000031 0.000063
												CHANNELS 6 Xposition Yposition Zposition Xrotation Yrotation Zrotation
												End Site
												{
													OFFSET 295.289337 0.000000 0.022810
												}
											}
										}
									}
								}
								JOINT mixamorig:LeftHandRing1
								{
									OFFSET 9.104523 -0.042999 -1.865074
									CHANNELS 6 Xposition Yposition Zposition Xrotation Yrotation Zrotation
									JOINT mixamorig:LeftHandRing2
									{
										OFFSET 3.150009 -0.000031 0.000043
										CHANNELS 6 Xposition Yposition Zposition Xrotation Yrotation Zrotation
										JOINT mixamorig:LeftHandRing3
										{
											OFFSET 2.949982 -0.000015 0.000040
											CHANNELS 6 Xposition Yposition Zposition Xrotation Yrotation Zrotation
											JOINT mixamorig:LeftHandRing4
											{
												OFFSET 2.644348 0.000000 0.000057
												CHANNELS 6 Xposition Yposition Zposition Xrotation Yrotation Zrotation
												End Site
												{
													OFFSET 264.434631 0.000000 0.012105
												}
											}
										}
									}
								}
								JOINT mixamorig:LeftHandPinky1
								{
									OFFSET 8.077789 -0.486847 -3.806259
									CHANNELS 6 Xposition Yposition Zposition Xrotation Yrotation Zrotation
									JOINT mixamorig:LeftHandPinky2
									{
										OFFSET 3.599953 0.000031 0.014727
										CHANNELS 6 Xposition Yposition Zposition Xrotation Yrotation Zrotation
										JOINT mixamorig:LeftHandPinky3
										{
											OFFSET 2.100021 0.000015 0.007705
											CHANNELS 6 Xposition Yposition Zposition Xrotation Yrotation Zrotation
											JOINT mixamorig:LeftHandPinky4
											{
												OFFSET 2.125504 0.000031 0.007517
												CHANNELS 6 Xposition Yposition Zposition Xrotation Yrotation Zrotation
												End Site
												{
													OFFSET 212.550781 0.000000 0.625752
												}
											}
										}
									}
								}
							}
						}
					}
				}
			}
		}
	}
	JOINT mixamorig:RightUpLeg
	{
		OFFSET -8.207787 -6.751648 -1.599560
		CHANNELS 6 Xposition Yposition Zposition Xrotation Yrotation Zrotation
		JOINT mixamorig:RightLeg
		{
			OFFSET -0.000002 -44.370117 0.345942
			CHANNELS 6 Xposition Yposition Zposition Xrotation Yrotation Zrotation
			JOINT mixamorig:RightFoot
			{
				OFFSET 0.000003 -44.423679 -3.043532
				CHANNELS 6 Xposition Yposition Zposition Xrotation Yrotation Zrotation
				JOINT mixamorig:RightToeBase
				{
					OFFSET -0.000002 -8.728671 10.710558
					CHANNELS 6 Xposition Yposition Zposition Xrotation Yrotation Zrotation
					JOINT mixamorig:RightToe_End
					{
						OFFSET -0.000001 -0.000679 9.278119
						CHANNELS 6 Xposition Yposition Zposition Xrotation Yrotation Zrotation
						End Site
						{
							OFFSET 0.000000 -0.067690 927.812134
						}
					}
				}
			}
		}
	}
	JOINT mixamorig:LeftUpLeg
	{
		OFFSET 8.207793 -6.751686 -1.599556
		CHANNELS 6 Xposition Yposition Zposition Xrotation Yrotation Zrotation
		JOINT mixamorig:LeftLeg
		{
			OFFSET -0.000004 -44.370014 0.346954
			CHANNELS 6 Xposition Yposition Zposition Xrotation Yrotation Zrotation
			JOINT mixamorig:LeftFoot
			{
				OFFSET -0.000001 -44.423672 -3.044401
				CHANNELS 6 Xposition Yposition Zposition Xrotation Yrotation Zrotation
				JOINT mixamorig:LeftToeBase
				{
					OFFSET -0.000002 -8.728669 10.710558
					CHANNELS 6 Xposition Yposition Zposition Xrotation Yrotation Zrotation
					JOINT mixamorig:LeftToe_End
					{
						OFFSET -0.000003 -0.000679 9.278133
						CHANNELS 6 Xposition Yposition Zposition Xrotation Yrotation Zrotation
						End Site
						{
							OFFSET 0.000000 -0.068021 927.813477
						}
					}
				}
			}
		}
	}
}
MOTION
Frames: 3
Frame Time: 0.033333
0.000006 104.270477 1.554256 0.000010 0.000003 -0.000113 -0.000005 10.181587 0.131522 0.000001 -0.000003 0.000084 -0.000000 9.893967 -1.470711 0.000001 0.000000 -0.000000 -0.000000 9.220802 -1.370642 0.000000 -0.000000 -0.000000 0.000001 16.740433 -2.049030 0.000000 -0.000000 -0.000000 0.000000 9.617859 1.685014 0.000000 0.000000 0.000000 0.000002 22.037384 7.501101 0.000000 -0.000000 0.000000 -4.569968 11.014880 -2.160881 0.000008 0.000001 -0.000038 -10.592865 -0.524667 -2.232030 71.532312 5.712361 -4.116406 -27.841534 0.000000 0.000531 -56.465017 119.514432 85.286899 -28.328819 0.000020 0.000025 -0.000315 -0.000045 0.000006 -2.464445 -1.573985 2.682403 -20.609022 -149.736352 41.489356 -3.215250 -1.872505 1.924629 151.941369 34.816271 28.033400 -2.654943 -1.527898 1.513091 151.273923 26.356232 -34.916258 -2.018853 -1.151999 1.108062 -0.000000 -0.000000 0.000000 -9.108396 -0.517580 2.260192 108.898193 18.353345 -25.541754 -3.700064 0.000296 0.001572 106.311785 16.598231 -22.000026 -2.850102 0.000350 -0.000210 106.864388 12.764435 -17.148563 -2.772167 -0.000018 -0.000021 0.000000 0.000001 -0.000001 -9.532606 0.000257 0.000304 108.237489 17.181658 -23.789843 -3.700092 0.000312 0.004029 106.583429 14.198770 -18.836876 -2.950067 0.000328 -0.001750 108.259441 11.698571 -16.117880 -2.946635 0.000002 -0.000152 0.000000 0.000000 0.000001 -9.103705 -0.042763 -1.864781 108.887654 17.750501 -24.584793 -3.379339 0.000316 -0.000737 109.176763 10.758319 -15.113467 -2.889760 0.000347 0.000720 113.278619 7.183416 -10.961629 -2.638823 -0.000017 0.000943 0.000000 -0.000000 -0.000001 -8.076773 -0.486418 -3.805952 101.674968 19.740896 -23.929889 -3.600033 0.000278 -0.003412 109.354279 9.187351 -12.431112 -2.100004 0.000305 -0.005385 113.599802 3.904143 -5.635173 -2.115764 -0.000040 -0.003684 0.000000 0.000000 -0.000002 4.570446 11.014691 -2.160851 -0.000018 0.000010 -0.000021 10.592364 -0.524526 -2.232282 69.192794 4.859067 -3.352578 27.841841 0.000108 -0.000244 103.645341 -63.835453 76.771087 28.328833 -0.000027 0.000021 0.000019 -0.000088 -0.000001 2.466075 -1.576182 2.681885 -18.562798 143.458466 -40.134707 3.217659 -1.871679 1.916387 146.672124 -34.764645 -41.816204 2.656086 -1.528582 1.514445 148.685172 -27.114639 31.272755 2.020884 -1.154066 1.115148 -0.000000 -0.000004 -0.000001 9.109384 -0.517804 2.259745 104.100839 -14.940064 19.072277 3.700066 0.000217 -0.000446 103.756140 -13.242015 16.849891 2.850057 0.000228 0.000232 101.377506 -11.889181 14.492874 2.774881 -0.000030 -0.000011 0.000000 0.000001 -0.000001 9.533463 0.000268 -0.000071 106.736261 -13.384236 17.923798 3.700056 0.000208 -0.000358 106.158400 -12.386343 16.431898 2.950089 0.000204 -0.000175 107.176105 -15.805633 21.320574 2.952881 -0.000031 0.000057 -0.000003 0.000000 -0.000000 9.104581 -0.042774 -1.865223 105.242000 -12.548313 16.380957 3.150077 0.000252 -0.000074 111.281137 -12.538197 18.259577 2.950058 0.000204 -0.000046 116.326509 -14.344200 22.915727 2.644317 0.000015 0.000058 0.000000 -0.000000 0.000000 8.077847 -0.486686 -3.806404 93.191880 -16.428287 17.973819 3.600012 0.000243 0.014557 97.620738 -11.895710 14.150383 2.100056 0.000252 0.007562 103.315695 -11.441728 15.042119 2.125502 0.000000 0.007505 0.000004 -0.000001 0.000001 -8.207786 -6.751667 -1.599560 -0.077001 -0.000003 0.000080 -0.000002 -44.370110 0.345938 0.153719 -0.000000 -0.000000 0.000000 -44.423679 -3.043532 -0.076700 0.000000 -0.000002 -0.000006 -8.728667 10.710559 -0.000009 -0.000000 -0.000000 -0.000001 -0.000679 9.278123 0.000000 -0.000000 -0.000000 8.207792 -6.751710 -1.599556 -0.074518 -0.000003 0.000081 -0.000002 -44.370014 0.346960 0.148822 0.000002 0.000000 -0.000001 -44.423664 -3.044403 -0.074314 0.000000 -0.000002 -0.000004 -8.728671 10.710558 0.000007 -0.000000 -0.000000 0.000000 -0.000680 9.278137 -0.000000 0.000000 -0.000001 
0.000006 104.270477 1.554256 0.000010 0.000003 -0.000113 -0.000005 10.181587 0.131522 0.000001 -0.000003 0.000084 -0.000000 9.893967 -1.470711 0.000001 0.000000 -0.000000 -0.000000 9.220802 -1.370642 0.000000 -0.000000 -0.000000 0.000001 16.740433 -2.049030 0.000000 -0.000000 -0.000000 0.000000 9.617859 1.685014 0.000000 0.000000 0.000000 0.000002 22.037384 7.501101 0.000000 -0.000000 0.000000 -4.569968 11.014880 -2.160881 0.000008 0.000001 -0.000038 -10.592878 -0.524701 -2.231989 70.719444 13.451807 -9.567285 -27.841530 0.000015 0.000506 -55.339043 118.654210 82.955263 -28.328827 0.000007 0.000023 -0.000320 -0.000044 0.000006 -2.464401 -1.573937 2.682351 -29.806054 -147.719971 23.929081 -3.215236 -1.872497 1.924607 147.180673 33.670237 31.056597 -2.654965 -1.527864 1.513056 148.326382 28.195940 -22.298040 -2.018827 -1.152002 1.108060 -0.000004 -0.000007 -0.000001 -9.108359 -0.517561 2.260192 114.111055 14.517630 -22.310444 -3.700045 0.000316 0.001583 112.527093 10.897465 -16.222686 -2.850065 0.000375 -0.000189 112.490224 7.786287 -11.627400 -2.772161 -0.000018 -0.000020 -0.000000 0.000001 -0.000001 -9.532579 0.000274 0.000330 111.299005 13.472007 -19.812210 -3.700062 0.000335 0.004038 110.487292 10.439838 -14.866889 -2.950076 0.000322 -0.001740 111.847838 9.379576 -13.819305 -2.946631 0.000000 -0.000158 0.000001 -0.000001 -0.000000 -9.103690 -0.042765 -1.864791 111.443825 15.172738 -22.049043 -3.379346 0.000312 -0.000742 111.868178 9.689630 -14.315342 -2.889748 0.000353 0.000751 116.721308 6.809598 -11.104956 -2.638800 0.000011 0.000940 -0.000003 0.000000 -0.000000 -8.076756 -0.486413 -3.805941 106.015806 16.848171 -22.045619 -3.600032 0.000290 -0.003424 110.864338 7.938437 -10.988000 -2.100022 0.000314 -0.005385 115.015126 3.837560 -5.685501 -2.115789 -0.000068 -0.003677 0.000001 -0.000000 -0.000004 4.570446 11.014691 -2.160851 -0.000018 0.000010 -0.000021 10.592358 -0.524553 -2.232255 69.319802 14.944118 -10.362911 27.841843 0.000100 -0.000224 102.104361 -65.747298 77.289936 28.328846 -0.000029 0.000030 0.000020 -0.000090 0.000000 2.466200 -1.576075 2.681861 9.343084 159.594364 -93.292584 3.217760 -1.871701 1.916394 164.053275 -34.783206 -12.102058 2.656104 -1.528581 1.514450 154.944781 -25.241533 36.851579 2.020907 -1.154060 1.115147 0.000000 0.000005 0.000002 9.109411 -0.517809 2.259784 115.789000 -20.106929 31.536544 3.700067 0.000225 -0.000449 112.763876 -13.107987 19.633859 2.850048 0.000268 0.000220 110.496348 -9.230031 13.271483 2.774888 -0.000050 -0.000035 0.000002 -0.000001 0.000003 9.533488 0.000256 -0.000039 113.773446 -19.406661 29.367406 3.700077 0.000249 -0.000377 114.135419 -9.985233 15.358164 2.950067 0.000264 -0.000190 113.692945 -9.252374 14.127416 2.952857 -0.000029 0.000058 0.000002 -0.000001 -0.000003 9.104600 -0.042797 -1.865195 111.864606 -18.827078 27.553989 3.150046 0.000253 -0.000055 115.693241 -12.413665 19.634374 2.950036 0.000257 -0.000057 115.851661 -10.337350 16.429865 2.644320 0.000046 0.000053 0.000000 -0.000001 0.000002 8.077857 -0.486694 -3.806371 100.762769 -23.201133 28.591875 3.600020 0.000200 0.014595 101.244345 -20.109475 25.035577 2.100057 0.000232 0.007572 101.066562 -14.077642 17.653947 2.125510 -0.000013 0.007518 0.000001 0.000003 0.000000 -8.207786 -6.751667 -1.599560 -0.077001 -0.000003 0.000080 -0.000002 -44.370110 0.345938 0.153719 -0.000000 -0.000000 0.000000 -44.423679 -3.043532 -0.076700 0.000000 -0.000002 -0.000006 -8.728667 10.710559 -0.000009 -0.000000 -0.000000 -0.000001 -0.000679 9.278123 0.000000 -0.000000 -0.000000 8.207792 -6.751710 -1.599556 -0.074518 -0.000003 0.000081 -0.000002 -44.370014 0.346960 0.148822 0.000002 0.000000 -0.000001 -44.423664 -3.044403 -0.074314 0.000000 -0.000002 -0.000004 -8.728671 10.710558 0.000007 -0.000000 -0.000000 0.000000 -0.000680 9.278137 -0.000000 0.000000 -0.000001 
0.000006 104.270477 1.554256 0.000010 0.000003 -0.000113 -0.000005 10.181587 0.131522 0.000001 -0.000003 0.000084 -0.000000 9.893967 -1.470711 0.000001 0.000000 -0.000000 -0.000000 9.220802 -1.370642 0.000000 -0.000000 -0.000000 0.000001 16.740433 -2.049030 0.000000 -0.000000 -0.000000 0.000000 9.617859 1.685014 0.000000 0.000000 0.000000 0.000002 22.037384 7.501101 0.000000 -0.000000 0.000000 -4.569968 11.014880 -2.160881 0.000008 0.000001 -0.000038 -10.592883 -0.524718 -2.231980 68.407316 17.257945 -11.777957 -27.841518 0.000003 0.000546 -53.980071 113.235001 75.402065 -28.328842 0.000022 0.000025 -0.000319 -0.000044 0.000006 -2.464433 -1.574004 2.682369 -15.168144 -142.804830 45.338710 -3.215185 -1.872439 1.924596 140.121003 32.748145 54.373674 -2.654954 -1.527839 1.513027 149.578698 28.895112 -15.056489 -2.018822 -1.152001 1.108058 -0.000003 0.000002 0.000003 -9.108374 -0.517583 2.260235 120.273962 14.900831 -25.741736 -3.700061 0.000302 0.001607 119.380287 11.032375 -18.721839 -2.850077 0.000370 -0.000169 118.351810 7.324434 -12.243538 -2.772141 -0.000017 -0.000018 0.000001 0.000000 0.000000 -9.532575 0.000263 0.000332 116.394401 11.987825 -19.441573 -3.700058 0.000324 0.004073 116.514544 9.155511 -14.600351 -2.950059 0.000348 -0.001705 116.036745 8.139775 -12.990596 -2.946624 0.000001 -0.000155 0.000002 -0.000001 -0.000000 -9.103671 -0.042752 -1.864764 116.992767 12.513345 -20.214351 -3.379324 0.000318 -0.000689 117.398671 8.923089 -14.653782 -2.889760 0.000336 0.000761 119.563773 6.284431 -10.847085 -2.638808 -0.000001 0.000936 0.000001 -0.000000 -0.000000 -8.076729 -0.486380 -3.805922 111.572219 14.417621 -20.860453 -3.600028 0.000282 -0.003388 116.708562 7.696600 -11.884370 -2.100013 0.000307 -0.005369 119.472207 3.824136 -6.180805 -2.115758 -0.000042 -0.003680 0.000001 -0.000000 -0.000004 4.570446 11.014691 -2.160851 -0.000018 0.000010 -0.000021 10.592359 -0.524553 -2.232265 67.930521 14.302252 -9.661709 27.841833 0.000081 -0.000214 97.875914 -67.491715 74.965923 28.328848 -0.000028 0.000020 0.000020 -0.000088 -0.000000 2.466253 -1.576030 2.681848 25.460275 164.511827 -113.807522 3.217454 -1.871839 1.916554 128.349869 -11.205957 -137.424581 2.656027 -1.528485 1.514439 159.366249 -31.281778 0.797367 2.020898 -1.154053 1.115142 0.000001 0.000003 0.000006 9.109431 -0.517794 2.259784 125.558138 -18.956239 35.938181 3.700085 0.000254 -0.000417 123.619280 -11.594573 21.483783 2.850065 0.000295 0.000250 121.816233 -8.040774 14.396504 2.774859 -0.000046 -0.000023 0.000001 0.000000 -0.000004 9.533489 0.000265 -0.000048 118.958604 -17.261201 28.860773 3.700061 0.000292 -0.000338 120.583616 -8.222865 14.356064 2.950064 0.000287 -0.000177 121.305389 -7.903416 14.013634 2.952859 -0.000035 0.000068 0.000000 0.000002 -0.000003 9.104610 -0.042765 -1.865193 116.698372 -15.434716 24.800193 3.150064 0.000281 -0.000041 122.756545 -11.191648 20.360304 2.950039 0.000270 -0.000039 124.113621 -9.736734 18.247856 2.644319 0.000047 0.000066 -0.000000 -0.000000 -0.000001 8.077863 -0.486650 -3.806389 108.080545 -17.469133 24.723432 3.600032 0.000269 0.014606 110.303655 -15.159368 22.381881 2.100056 0.000269 0.007595 113.317497 -11.666651 18.385145 2.125511 -0.000017 0.007512 -0.000001 -0.000002 0.000000 -8.207786 -6.751667 -1.599560 -0.077001 -0.000003 0.000080 -0.000002 -44.370110 0.345938 0.153719 -0.000000 -0.000000 0.000000 -44.423679 -3.043532 -0.076700 0.000000 -0.000002 -0.000006 -8.728667 10.710559 -0.000009 -0.000000 -0.000000 -0.000001 -0.000679 9.278123 0.000000 -0.000000 -0.000000 8.207792 -6.751710 -1.599556 -0.074518 -0.000003 0.000081 -0.000002 -44.370014 0.346960 0.148822 0.000002 0.000000 -0.000001 -44.423664 -3.044403 -0.074314 0.000000 -0.000002 -0.000004 -8.728671 10.710558 0.000007 -0.000000 -0.000000 0.000000 -0.000680 9.278137 -0.000000 0.000000 -0.000001 
